<mxfile host="Electron" agent="Mozilla/5.0 (Macintosh; Intel Mac OS X 10_15_7) AppleWebKit/537.36 (KHTML, like Gecko) draw.io/26.0.4 Chrome/128.0.6613.186 Electron/32.2.5 Safari/537.36" version="26.0.4">
  <diagram name="Страница — 1" id="gqWjCBKimB9imq09bjyO">
    <mxGraphModel dx="1307" dy="2124" grid="1" gridSize="10" guides="1" tooltips="1" connect="1" arrows="1" fold="1" page="1" pageScale="1" pageWidth="827" pageHeight="1169" math="0" shadow="0">
      <root>
        <mxCell id="0" />
        <mxCell id="1" parent="0" />
        <mxCell id="gh-8znMGUpCOYyHDODqv-152" value="" style="rounded=1;whiteSpace=wrap;html=1;fillColor=none;" parent="1" vertex="1">
          <mxGeometry x="1260" y="-90" width="590" height="410" as="geometry" />
        </mxCell>
        <mxCell id="gh-8znMGUpCOYyHDODqv-158" value="" style="rounded=1;whiteSpace=wrap;html=1;fillColor=none;" parent="1" vertex="1">
          <mxGeometry x="690" y="710" width="530" height="230" as="geometry" />
        </mxCell>
        <mxCell id="gh-8znMGUpCOYyHDODqv-161" value="" style="rounded=1;whiteSpace=wrap;html=1;fillColor=none;" parent="1" vertex="1">
          <mxGeometry x="1330" y="540" width="410" height="270" as="geometry" />
        </mxCell>
        <mxCell id="gh-8znMGUpCOYyHDODqv-3" value="Обработка заявок от соискателей" style="text;html=1;align=center;verticalAlign=middle;whiteSpace=wrap;rounded=0;fontFamily=Helvetica;fontSize=18;fontColor=default;autosize=1;resizable=0;" parent="1" vertex="1">
          <mxGeometry x="199" y="65" width="320" height="40" as="geometry" />
        </mxCell>
        <mxCell id="gh-8znMGUpCOYyHDODqv-14" style="edgeStyle=orthogonalEdgeStyle;rounded=0;orthogonalLoop=1;jettySize=auto;html=1;entryX=1;entryY=0.5;entryDx=0;entryDy=0;" parent="1" source="gh-8znMGUpCOYyHDODqv-4" target="gh-8znMGUpCOYyHDODqv-10" edge="1">
          <mxGeometry relative="1" as="geometry" />
        </mxCell>
        <mxCell id="gh-8znMGUpCOYyHDODqv-15" value="has_many" style="edgeLabel;html=1;align=center;verticalAlign=middle;resizable=0;points=[];" parent="gh-8znMGUpCOYyHDODqv-14" vertex="1" connectable="0">
          <mxGeometry x="-0.0667" y="1" relative="1" as="geometry">
            <mxPoint as="offset" />
          </mxGeometry>
        </mxCell>
        <mxCell id="gh-8znMGUpCOYyHDODqv-18" style="edgeStyle=orthogonalEdgeStyle;rounded=0;orthogonalLoop=1;jettySize=auto;html=1;exitX=0.5;exitY=1;exitDx=0;exitDy=0;" parent="1" source="gh-8znMGUpCOYyHDODqv-4" target="gh-8znMGUpCOYyHDODqv-16" edge="1">
          <mxGeometry relative="1" as="geometry" />
        </mxCell>
        <mxCell id="gh-8znMGUpCOYyHDODqv-20" value="has_many" style="edgeLabel;html=1;align=center;verticalAlign=middle;resizable=0;points=[];" parent="gh-8znMGUpCOYyHDODqv-18" vertex="1" connectable="0">
          <mxGeometry x="-0.08" y="1" relative="1" as="geometry">
            <mxPoint as="offset" />
          </mxGeometry>
        </mxCell>
        <mxCell id="gh-8znMGUpCOYyHDODqv-4" value="Applicant" style="swimlane;childLayout=stackLayout;horizontal=1;startSize=50;horizontalStack=0;rounded=1;fontSize=14;fontStyle=0;strokeWidth=2;resizeParent=0;resizeLast=1;shadow=0;dashed=0;align=center;arcSize=4;whiteSpace=wrap;html=1;" parent="1" vertex="1" collapsed="1">
          <mxGeometry x="430" y="280" width="100" height="50" as="geometry">
            <mxRectangle x="150" y="120" width="160" height="120" as="alternateBounds" />
          </mxGeometry>
        </mxCell>
        <mxCell id="gh-8znMGUpCOYyHDODqv-5" value="+Attribute1&#xa;+Attribute2&#xa;+Attribute3" style="align=left;strokeColor=none;fillColor=none;spacingLeft=4;fontSize=12;verticalAlign=top;resizable=0;rotatable=0;part=1;html=1;" parent="gh-8znMGUpCOYyHDODqv-4" vertex="1">
          <mxGeometry y="50" width="160" height="70" as="geometry" />
        </mxCell>
        <mxCell id="gh-8znMGUpCOYyHDODqv-8" style="edgeStyle=orthogonalEdgeStyle;rounded=0;orthogonalLoop=1;jettySize=auto;html=1;" parent="1" source="gh-8znMGUpCOYyHDODqv-6" target="gh-8znMGUpCOYyHDODqv-4" edge="1">
          <mxGeometry relative="1" as="geometry">
            <mxPoint x="280" y="165" as="targetPoint" />
          </mxGeometry>
        </mxCell>
        <mxCell id="gh-8znMGUpCOYyHDODqv-9" value="has_many" style="edgeLabel;html=1;align=center;verticalAlign=middle;resizable=0;points=[];" parent="gh-8znMGUpCOYyHDODqv-8" vertex="1" connectable="0">
          <mxGeometry x="-0.0159" y="-4" relative="1" as="geometry">
            <mxPoint x="-1" y="-1" as="offset" />
          </mxGeometry>
        </mxCell>
        <mxCell id="gh-8znMGUpCOYyHDODqv-109" style="edgeStyle=orthogonalEdgeStyle;rounded=0;orthogonalLoop=1;jettySize=auto;html=1;entryX=1;entryY=0.5;entryDx=0;entryDy=0;" parent="1" source="gh-8znMGUpCOYyHDODqv-6" target="gh-8znMGUpCOYyHDODqv-105" edge="1">
          <mxGeometry relative="1" as="geometry" />
        </mxCell>
        <mxCell id="gh-8znMGUpCOYyHDODqv-110" value="has_many" style="edgeLabel;html=1;align=center;verticalAlign=middle;resizable=0;points=[];" parent="gh-8znMGUpCOYyHDODqv-109" vertex="1" connectable="0">
          <mxGeometry x="-0.0168" relative="1" as="geometry">
            <mxPoint as="offset" />
          </mxGeometry>
        </mxCell>
        <mxCell id="gh-8znMGUpCOYyHDODqv-6" value="Manager" style="swimlane;childLayout=stackLayout;horizontal=1;startSize=50;horizontalStack=0;rounded=1;fontSize=14;fontStyle=0;strokeWidth=2;resizeParent=0;resizeLast=1;shadow=0;dashed=0;align=center;arcSize=4;whiteSpace=wrap;html=1;strokeColor=#7EA6E0;verticalAlign=middle;fontFamily=Helvetica;fontColor=default;fillColor=default;" parent="1" vertex="1" collapsed="1">
          <mxGeometry x="430" y="120" width="100" height="50" as="geometry">
            <mxRectangle x="364" y="120" width="160" height="120" as="alternateBounds" />
          </mxGeometry>
        </mxCell>
        <mxCell id="gh-8znMGUpCOYyHDODqv-7" value="+Attribute1&#xa;+Attribute2&#xa;+Attribute3" style="align=center;strokeColor=#7EA6E0;fillColor=default;spacingLeft=4;fontSize=14;verticalAlign=middle;resizable=0;rotatable=0;part=1;html=1;rounded=1;shadow=0;dashed=0;strokeWidth=2;arcSize=4;fontFamily=Helvetica;fontColor=default;fontStyle=0;" parent="gh-8znMGUpCOYyHDODqv-6" vertex="1">
          <mxGeometry y="50" width="160" height="70" as="geometry" />
        </mxCell>
        <mxCell id="gh-8znMGUpCOYyHDODqv-10" value="Test" style="swimlane;childLayout=stackLayout;horizontal=1;startSize=50;horizontalStack=0;rounded=1;fontSize=14;fontStyle=0;strokeWidth=2;resizeParent=0;resizeLast=1;shadow=0;dashed=0;align=center;arcSize=4;whiteSpace=wrap;html=1;" parent="1" vertex="1" collapsed="1">
          <mxGeometry x="205" y="280" width="70" height="50" as="geometry">
            <mxRectangle x="350" y="280" width="160" height="120" as="alternateBounds" />
          </mxGeometry>
        </mxCell>
        <mxCell id="gh-8znMGUpCOYyHDODqv-11" value="+Attribute1&#xa;+Attribute2&#xa;+Attribute3" style="align=left;strokeColor=none;fillColor=none;spacingLeft=4;fontSize=12;verticalAlign=top;resizable=0;rotatable=0;part=1;html=1;" parent="gh-8znMGUpCOYyHDODqv-10" vertex="1">
          <mxGeometry y="50" width="160" height="70" as="geometry" />
        </mxCell>
        <mxCell id="gh-8znMGUpCOYyHDODqv-16" value="Test result" style="swimlane;childLayout=stackLayout;horizontal=1;startSize=50;horizontalStack=0;rounded=1;fontSize=14;fontStyle=0;strokeWidth=2;resizeParent=0;resizeLast=1;shadow=0;dashed=0;align=center;arcSize=4;whiteSpace=wrap;html=1;" parent="1" vertex="1" collapsed="1">
          <mxGeometry x="300" y="390" width="100" height="50" as="geometry">
            <mxRectangle x="350" y="280" width="160" height="120" as="alternateBounds" />
          </mxGeometry>
        </mxCell>
        <mxCell id="gh-8znMGUpCOYyHDODqv-17" value="+Attribute1&#xa;+Attribute2&#xa;+Attribute3" style="align=left;strokeColor=none;fillColor=none;spacingLeft=4;fontSize=12;verticalAlign=top;resizable=0;rotatable=0;part=1;html=1;" parent="gh-8znMGUpCOYyHDODqv-16" vertex="1">
          <mxGeometry y="50" width="160" height="70" as="geometry" />
        </mxCell>
        <mxCell id="gh-8znMGUpCOYyHDODqv-42" style="edgeStyle=orthogonalEdgeStyle;rounded=0;orthogonalLoop=1;jettySize=auto;html=1;exitX=0.5;exitY=1;exitDx=0;exitDy=0;" parent="1" source="gh-8znMGUpCOYyHDODqv-28" target="gh-8znMGUpCOYyHDODqv-39" edge="1">
          <mxGeometry relative="1" as="geometry">
            <Array as="points">
              <mxPoint x="1020" y="220" />
              <mxPoint x="1020" y="220" />
            </Array>
          </mxGeometry>
        </mxCell>
        <mxCell id="gh-8znMGUpCOYyHDODqv-43" value="has_many" style="edgeLabel;html=1;align=center;verticalAlign=middle;resizable=0;points=[];" parent="gh-8znMGUpCOYyHDODqv-42" vertex="1" connectable="0">
          <mxGeometry x="-0.0865" y="-2" relative="1" as="geometry">
            <mxPoint as="offset" />
          </mxGeometry>
        </mxCell>
        <mxCell id="gh-8znMGUpCOYyHDODqv-28" value="Client" style="swimlane;childLayout=stackLayout;horizontal=1;startSize=50;horizontalStack=0;rounded=1;fontSize=14;fontStyle=0;strokeWidth=2;resizeParent=0;resizeLast=1;shadow=0;dashed=0;align=center;arcSize=4;whiteSpace=wrap;html=1;strokeColor=#7EA6E0;verticalAlign=middle;fontFamily=Helvetica;fontColor=default;fillColor=default;" parent="1" vertex="1" collapsed="1">
          <mxGeometry x="980" y="120" width="80" height="50" as="geometry">
            <mxRectangle x="940" y="90" width="160" height="120" as="alternateBounds" />
          </mxGeometry>
        </mxCell>
        <mxCell id="gh-8znMGUpCOYyHDODqv-29" value="+client_discount" style="align=center;strokeColor=#7EA6E0;fillColor=default;spacingLeft=4;fontSize=14;verticalAlign=middle;resizable=0;rotatable=0;part=1;html=1;rounded=1;shadow=0;dashed=0;strokeWidth=2;arcSize=4;fontFamily=Helvetica;fontColor=default;fontStyle=0;" parent="gh-8znMGUpCOYyHDODqv-28" vertex="1">
          <mxGeometry y="50" width="160" height="70" as="geometry" />
        </mxCell>
        <mxCell id="gh-8znMGUpCOYyHDODqv-34" style="edgeStyle=orthogonalEdgeStyle;rounded=0;orthogonalLoop=1;jettySize=auto;html=1;entryX=0;entryY=0.5;entryDx=0;entryDy=0;" parent="1" source="gh-8znMGUpCOYyHDODqv-31" target="gh-8znMGUpCOYyHDODqv-28" edge="1">
          <mxGeometry relative="1" as="geometry" />
        </mxCell>
        <mxCell id="gh-8znMGUpCOYyHDODqv-35" value="has_many" style="edgeLabel;html=1;align=center;verticalAlign=middle;resizable=0;points=[];" parent="gh-8znMGUpCOYyHDODqv-34" vertex="1" connectable="0">
          <mxGeometry x="0.0182" relative="1" as="geometry">
            <mxPoint as="offset" />
          </mxGeometry>
        </mxCell>
        <mxCell id="gh-8znMGUpCOYyHDODqv-44" style="edgeStyle=orthogonalEdgeStyle;rounded=0;orthogonalLoop=1;jettySize=auto;html=1;entryX=0.5;entryY=0;entryDx=0;entryDy=0;exitX=0.5;exitY=1;exitDx=0;exitDy=0;" parent="1" source="gh-8znMGUpCOYyHDODqv-31" target="gh-8znMGUpCOYyHDODqv-36" edge="1">
          <mxGeometry relative="1" as="geometry" />
        </mxCell>
        <mxCell id="gh-8znMGUpCOYyHDODqv-45" value="has_many" style="edgeLabel;html=1;align=center;verticalAlign=middle;resizable=0;points=[];" parent="gh-8znMGUpCOYyHDODqv-44" vertex="1" connectable="0">
          <mxGeometry x="0.2491" y="2" relative="1" as="geometry">
            <mxPoint as="offset" />
          </mxGeometry>
        </mxCell>
        <mxCell id="bqryw9lpH8J73LWhgrvI-25" style="edgeStyle=orthogonalEdgeStyle;rounded=0;orthogonalLoop=1;jettySize=auto;html=1;exitX=0;exitY=0.75;exitDx=0;exitDy=0;dashed=1;dashPattern=8 8;strokeColor=#6c8ebf;strokeWidth=2;align=center;verticalAlign=middle;fontFamily=Helvetica;fontSize=11;fontColor=default;labelBackgroundColor=default;endArrow=classic;fillColor=#dae8fc;entryX=0;entryY=0.5;entryDx=0;entryDy=0;jumpStyle=line;" edge="1" parent="1" source="gh-8znMGUpCOYyHDODqv-31" target="gh-8znMGUpCOYyHDODqv-138">
          <mxGeometry relative="1" as="geometry">
            <Array as="points">
              <mxPoint x="680" y="158" />
              <mxPoint x="680" y="850" />
            </Array>
          </mxGeometry>
        </mxCell>
        <mxCell id="bqryw9lpH8J73LWhgrvI-28" style="edgeStyle=orthogonalEdgeStyle;rounded=0;orthogonalLoop=1;jettySize=auto;html=1;entryX=1;entryY=0.5;entryDx=0;entryDy=0;dashed=1;dashPattern=8 8;strokeColor=#6c8ebf;strokeWidth=2;align=center;verticalAlign=middle;fontFamily=Helvetica;fontSize=11;fontColor=default;labelBackgroundColor=default;jumpStyle=line;endArrow=classic;fillColor=#dae8fc;" edge="1" parent="1" source="gh-8znMGUpCOYyHDODqv-31" target="gh-8znMGUpCOYyHDODqv-6">
          <mxGeometry relative="1" as="geometry" />
        </mxCell>
        <mxCell id="gh-8znMGUpCOYyHDODqv-31" value="Manager" style="swimlane;childLayout=stackLayout;horizontal=1;startSize=50;horizontalStack=0;rounded=1;fontSize=14;fontStyle=0;strokeWidth=2;resizeParent=0;resizeLast=1;shadow=0;dashed=0;align=center;arcSize=4;whiteSpace=wrap;html=1;" parent="1" vertex="1" collapsed="1">
          <mxGeometry x="735" y="120" width="100" height="50" as="geometry">
            <mxRectangle x="520" y="30" width="160" height="120" as="alternateBounds" />
          </mxGeometry>
        </mxCell>
        <mxCell id="gh-8znMGUpCOYyHDODqv-32" value="+Attribute1&#xa;+Attribute2&#xa;+Attribute3" style="align=left;strokeColor=none;fillColor=none;spacingLeft=4;fontSize=12;verticalAlign=top;resizable=0;rotatable=0;part=1;html=1;" parent="gh-8znMGUpCOYyHDODqv-31" vertex="1">
          <mxGeometry y="50" width="160" height="70" as="geometry" />
        </mxCell>
        <mxCell id="bqryw9lpH8J73LWhgrvI-24" style="edgeStyle=orthogonalEdgeStyle;rounded=0;orthogonalLoop=1;jettySize=auto;html=1;entryX=1;entryY=0.5;entryDx=0;entryDy=0;dashed=1;strokeColor=#6c8ebf;strokeWidth=2;align=center;verticalAlign=middle;fontFamily=Helvetica;fontSize=11;fontColor=default;labelBackgroundColor=default;endArrow=classic;fillColor=#dae8fc;exitX=0;exitY=0.5;exitDx=0;exitDy=0;jumpStyle=line;dashPattern=8 8;" edge="1" parent="1" source="gh-8znMGUpCOYyHDODqv-36" target="gh-8znMGUpCOYyHDODqv-117">
          <mxGeometry relative="1" as="geometry">
            <Array as="points">
              <mxPoint x="640" y="360" />
              <mxPoint x="640" />
              <mxPoint x="530" />
              <mxPoint x="530" y="-385" />
            </Array>
          </mxGeometry>
        </mxCell>
        <mxCell id="bqryw9lpH8J73LWhgrvI-26" style="edgeStyle=orthogonalEdgeStyle;rounded=0;orthogonalLoop=1;jettySize=auto;html=1;entryX=0;entryY=0.5;entryDx=0;entryDy=0;" edge="1" parent="1" source="gh-8znMGUpCOYyHDODqv-36" target="gh-8znMGUpCOYyHDODqv-39">
          <mxGeometry relative="1" as="geometry" />
        </mxCell>
        <mxCell id="bqryw9lpH8J73LWhgrvI-27" value="has_many" style="edgeLabel;html=1;align=center;verticalAlign=middle;resizable=0;points=[];" vertex="1" connectable="0" parent="bqryw9lpH8J73LWhgrvI-26">
          <mxGeometry x="-0.0429" y="2" relative="1" as="geometry">
            <mxPoint as="offset" />
          </mxGeometry>
        </mxCell>
        <mxCell id="gh-8znMGUpCOYyHDODqv-36" value="Worker" style="swimlane;childLayout=stackLayout;horizontal=1;startSize=50;horizontalStack=0;rounded=1;fontSize=14;fontStyle=0;strokeWidth=2;resizeParent=0;resizeLast=1;shadow=0;dashed=0;align=center;arcSize=4;whiteSpace=wrap;html=1;" parent="1" vertex="1" collapsed="1">
          <mxGeometry x="745" y="335" width="80" height="50" as="geometry">
            <mxRectangle x="520" y="30" width="160" height="120" as="alternateBounds" />
          </mxGeometry>
        </mxCell>
        <mxCell id="gh-8znMGUpCOYyHDODqv-37" value="+Attribute1&#xa;+Attribute2&#xa;+Attribute3" style="align=left;strokeColor=none;fillColor=none;spacingLeft=4;fontSize=12;verticalAlign=top;resizable=0;rotatable=0;part=1;html=1;" parent="gh-8znMGUpCOYyHDODqv-36" vertex="1">
          <mxGeometry y="50" width="160" height="70" as="geometry" />
        </mxCell>
        <mxCell id="gh-8znMGUpCOYyHDODqv-39" value="Task" style="swimlane;childLayout=stackLayout;horizontal=1;startSize=50;horizontalStack=0;rounded=1;fontSize=14;fontStyle=0;strokeWidth=2;resizeParent=0;resizeLast=1;shadow=0;dashed=0;align=center;arcSize=4;whiteSpace=wrap;html=1;" parent="1" vertex="1">
          <mxGeometry x="940" y="300" width="160" height="120" as="geometry">
            <mxRectangle x="940" y="300" width="70" height="50" as="alternateBounds" />
          </mxGeometry>
        </mxCell>
        <mxCell id="gh-8znMGUpCOYyHDODqv-40" value="&lt;div&gt;+type&lt;/div&gt;+desc&lt;br&gt;+price&lt;br&gt;+photo_url" style="align=left;strokeColor=none;fillColor=none;spacingLeft=4;fontSize=12;verticalAlign=top;resizable=0;rotatable=0;part=1;html=1;" parent="gh-8znMGUpCOYyHDODqv-39" vertex="1">
          <mxGeometry y="50" width="160" height="70" as="geometry" />
        </mxCell>
        <mxCell id="gh-8znMGUpCOYyHDODqv-48" value="Расходники" style="text;html=1;align=center;verticalAlign=middle;resizable=0;points=[];autosize=1;strokeColor=none;fillColor=none;fontSize=24;" parent="1" vertex="1">
          <mxGeometry x="1470" y="-82" width="160" height="40" as="geometry" />
        </mxCell>
        <mxCell id="gh-8znMGUpCOYyHDODqv-49" value="Consumables order" style="swimlane;childLayout=stackLayout;horizontal=1;startSize=50;horizontalStack=0;rounded=1;fontSize=14;fontStyle=0;strokeWidth=2;resizeParent=0;resizeLast=1;shadow=0;dashed=0;align=center;arcSize=4;whiteSpace=wrap;html=1;" parent="1" vertex="1" collapsed="1">
          <mxGeometry x="1485" y="110" width="120" height="50" as="geometry">
            <mxRectangle x="1280" y="120" width="160" height="120" as="alternateBounds" />
          </mxGeometry>
        </mxCell>
        <mxCell id="gh-8znMGUpCOYyHDODqv-50" value="+Attribute1&#xa;+Attribute2&#xa;+Attribute3" style="align=left;strokeColor=none;fillColor=none;spacingLeft=4;fontSize=12;verticalAlign=top;resizable=0;rotatable=0;part=1;html=1;" parent="gh-8znMGUpCOYyHDODqv-49" vertex="1">
          <mxGeometry y="50" width="160" height="70" as="geometry" />
        </mxCell>
        <mxCell id="gh-8znMGUpCOYyHDODqv-53" style="edgeStyle=orthogonalEdgeStyle;rounded=0;orthogonalLoop=1;jettySize=auto;html=1;entryX=1;entryY=0.5;entryDx=0;entryDy=0;" parent="1" source="gh-8znMGUpCOYyHDODqv-51" target="gh-8znMGUpCOYyHDODqv-49" edge="1">
          <mxGeometry relative="1" as="geometry">
            <mxPoint x="1670" y="135" as="targetPoint" />
          </mxGeometry>
        </mxCell>
        <mxCell id="gh-8znMGUpCOYyHDODqv-54" value="many_to_many" style="edgeLabel;html=1;align=center;verticalAlign=middle;resizable=0;points=[];" parent="gh-8znMGUpCOYyHDODqv-53" vertex="1" connectable="0">
          <mxGeometry x="-0.0108" relative="1" as="geometry">
            <mxPoint y="-1" as="offset" />
          </mxGeometry>
        </mxCell>
        <mxCell id="gh-8znMGUpCOYyHDODqv-51" value="Consumable" style="swimlane;childLayout=stackLayout;horizontal=1;startSize=50;horizontalStack=0;rounded=1;fontSize=14;fontStyle=0;strokeWidth=2;resizeParent=0;resizeLast=1;shadow=0;dashed=0;align=center;arcSize=4;whiteSpace=wrap;html=1;" parent="1" vertex="1" collapsed="1">
          <mxGeometry x="1710" y="110" width="80" height="50" as="geometry">
            <mxRectangle x="1500" y="110" width="160" height="120" as="alternateBounds" />
          </mxGeometry>
        </mxCell>
        <mxCell id="gh-8znMGUpCOYyHDODqv-52" value="+Attribute1&#xa;+Attribute2&#xa;+Attribute3" style="align=left;strokeColor=none;fillColor=none;spacingLeft=4;fontSize=12;verticalAlign=top;resizable=0;rotatable=0;part=1;html=1;" parent="gh-8znMGUpCOYyHDODqv-51" vertex="1">
          <mxGeometry y="50" width="160" height="70" as="geometry" />
        </mxCell>
        <mxCell id="gh-8znMGUpCOYyHDODqv-72" style="edgeStyle=orthogonalEdgeStyle;rounded=0;orthogonalLoop=1;jettySize=auto;html=1;entryX=0.5;entryY=1;entryDx=0;entryDy=0;" parent="1" source="gh-8znMGUpCOYyHDODqv-55" target="gh-8znMGUpCOYyHDODqv-49" edge="1">
          <mxGeometry relative="1" as="geometry" />
        </mxCell>
        <mxCell id="gh-8znMGUpCOYyHDODqv-73" value="has_many" style="edgeLabel;html=1;align=center;verticalAlign=middle;resizable=0;points=[];" parent="gh-8znMGUpCOYyHDODqv-72" vertex="1" connectable="0">
          <mxGeometry x="0.3185" y="2" relative="1" as="geometry">
            <mxPoint as="offset" />
          </mxGeometry>
        </mxCell>
        <mxCell id="gh-8znMGUpCOYyHDODqv-55" value="Order status" style="swimlane;childLayout=stackLayout;horizontal=1;startSize=50;horizontalStack=0;rounded=1;fontSize=14;fontStyle=0;strokeWidth=2;resizeParent=0;resizeLast=1;shadow=0;dashed=0;align=center;arcSize=4;whiteSpace=wrap;html=1;" parent="1" vertex="1" collapsed="1">
          <mxGeometry x="1505" y="230" width="80" height="50" as="geometry">
            <mxRectangle x="1560" y="260" width="160" height="120" as="alternateBounds" />
          </mxGeometry>
        </mxCell>
        <mxCell id="gh-8znMGUpCOYyHDODqv-56" value="+Attribute1&#xa;+Attribute2&#xa;+Attribute3" style="align=left;strokeColor=none;fillColor=none;spacingLeft=4;fontSize=12;verticalAlign=top;resizable=0;rotatable=0;part=1;html=1;" parent="gh-8znMGUpCOYyHDODqv-55" vertex="1">
          <mxGeometry y="50" width="160" height="70" as="geometry" />
        </mxCell>
        <mxCell id="gh-8znMGUpCOYyHDODqv-64" style="edgeStyle=orthogonalEdgeStyle;rounded=0;orthogonalLoop=1;jettySize=auto;html=1;entryX=0.5;entryY=0;entryDx=0;entryDy=0;exitX=0.5;exitY=1;exitDx=0;exitDy=0;" parent="1" source="gh-8znMGUpCOYyHDODqv-84" target="gh-8znMGUpCOYyHDODqv-49" edge="1">
          <mxGeometry relative="1" as="geometry">
            <mxPoint x="1545" y="40" as="sourcePoint" />
          </mxGeometry>
        </mxCell>
        <mxCell id="gh-8znMGUpCOYyHDODqv-66" value="has_many" style="edgeLabel;html=1;align=center;verticalAlign=middle;resizable=0;points=[];" parent="gh-8znMGUpCOYyHDODqv-64" vertex="1" connectable="0">
          <mxGeometry x="-0.0095" y="2" relative="1" as="geometry">
            <mxPoint as="offset" />
          </mxGeometry>
        </mxCell>
        <mxCell id="gh-8znMGUpCOYyHDODqv-74" style="edgeStyle=orthogonalEdgeStyle;rounded=0;orthogonalLoop=1;jettySize=auto;html=1;entryX=0.5;entryY=1;entryDx=0;entryDy=0;" parent="1" source="gh-8znMGUpCOYyHDODqv-68" target="gh-8znMGUpCOYyHDODqv-40" edge="1">
          <mxGeometry relative="1" as="geometry" />
        </mxCell>
        <mxCell id="gh-8znMGUpCOYyHDODqv-75" value="has_many" style="edgeLabel;html=1;align=center;verticalAlign=middle;resizable=0;points=[];" parent="gh-8znMGUpCOYyHDODqv-74" vertex="1" connectable="0">
          <mxGeometry x="-0.0143" y="-2" relative="1" as="geometry">
            <mxPoint as="offset" />
          </mxGeometry>
        </mxCell>
        <mxCell id="gh-8znMGUpCOYyHDODqv-68" value="Task status" style="swimlane;childLayout=stackLayout;horizontal=1;startSize=50;horizontalStack=0;rounded=1;fontSize=14;fontStyle=0;strokeWidth=2;resizeParent=0;resizeLast=1;shadow=0;dashed=0;align=center;arcSize=4;whiteSpace=wrap;html=1;" parent="1" vertex="1" collapsed="1">
          <mxGeometry x="980" y="500" width="80" height="50" as="geometry">
            <mxRectangle x="1030" y="200" width="160" height="120" as="alternateBounds" />
          </mxGeometry>
        </mxCell>
        <mxCell id="gh-8znMGUpCOYyHDODqv-69" value="+Attribute1&#xa;+Attribute2&#xa;+Attribute3" style="align=left;strokeColor=none;fillColor=none;spacingLeft=4;fontSize=12;verticalAlign=top;resizable=0;rotatable=0;part=1;html=1;" parent="gh-8znMGUpCOYyHDODqv-68" vertex="1">
          <mxGeometry y="50" width="160" height="70" as="geometry" />
        </mxCell>
        <mxCell id="gh-8znMGUpCOYyHDODqv-76" value="Оценка качества" style="text;html=1;align=center;verticalAlign=middle;resizable=0;points=[];autosize=1;strokeColor=none;fillColor=none;fontSize=24;" parent="1" vertex="1">
          <mxGeometry x="1390" y="545" width="220" height="40" as="geometry" />
        </mxCell>
        <mxCell id="gh-8znMGUpCOYyHDODqv-91" style="edgeStyle=orthogonalEdgeStyle;rounded=0;orthogonalLoop=1;jettySize=auto;html=1;entryX=0;entryY=0.5;entryDx=0;entryDy=0;" parent="1" source="gh-8znMGUpCOYyHDODqv-78" target="gh-8znMGUpCOYyHDODqv-89" edge="1">
          <mxGeometry relative="1" as="geometry" />
        </mxCell>
        <mxCell id="gh-8znMGUpCOYyHDODqv-92" value="has_many" style="edgeLabel;html=1;align=center;verticalAlign=middle;resizable=0;points=[];" parent="gh-8znMGUpCOYyHDODqv-91" vertex="1" connectable="0">
          <mxGeometry x="0.0023" relative="1" as="geometry">
            <mxPoint as="offset" />
          </mxGeometry>
        </mxCell>
        <mxCell id="gh-8znMGUpCOYyHDODqv-78" value="Quality manager" style="swimlane;childLayout=stackLayout;horizontal=1;startSize=50;horizontalStack=0;rounded=1;fontSize=14;fontStyle=0;strokeWidth=2;resizeParent=0;resizeLast=1;shadow=0;dashed=0;align=center;arcSize=4;whiteSpace=wrap;html=1;" parent="1" vertex="1" collapsed="1">
          <mxGeometry x="1400" y="612" width="80" height="50" as="geometry">
            <mxRectangle x="1830" y="-10" width="160" height="120" as="alternateBounds" />
          </mxGeometry>
        </mxCell>
        <mxCell id="gh-8znMGUpCOYyHDODqv-79" value="+Attribute1&#xa;+Attribute2&#xa;+Attribute3" style="align=left;strokeColor=none;fillColor=none;spacingLeft=4;fontSize=12;verticalAlign=top;resizable=0;rotatable=0;part=1;html=1;" parent="gh-8znMGUpCOYyHDODqv-78" vertex="1">
          <mxGeometry y="50" width="160" height="70" as="geometry" />
        </mxCell>
        <mxCell id="gh-8znMGUpCOYyHDODqv-84" value="Consumables&lt;div&gt;manager&lt;/div&gt;" style="swimlane;childLayout=stackLayout;horizontal=1;startSize=50;horizontalStack=0;rounded=1;fontSize=14;fontStyle=0;strokeWidth=2;resizeParent=0;resizeLast=1;shadow=0;dashed=0;align=center;arcSize=4;whiteSpace=wrap;html=1;" parent="1" vertex="1" collapsed="1">
          <mxGeometry x="1480" y="-10" width="130" height="50" as="geometry">
            <mxRectangle x="1360" y="-370" width="160" height="120" as="alternateBounds" />
          </mxGeometry>
        </mxCell>
        <mxCell id="gh-8znMGUpCOYyHDODqv-85" value="+Attribute1&#xa;+Attribute2&#xa;+Attribute3" style="align=left;strokeColor=none;fillColor=none;spacingLeft=4;fontSize=12;verticalAlign=top;resizable=0;rotatable=0;part=1;html=1;" parent="gh-8znMGUpCOYyHDODqv-84" vertex="1">
          <mxGeometry y="50" width="160" height="70" as="geometry" />
        </mxCell>
        <mxCell id="gh-8znMGUpCOYyHDODqv-98" style="edgeStyle=orthogonalEdgeStyle;rounded=0;orthogonalLoop=1;jettySize=auto;html=1;entryX=1;entryY=0.5;entryDx=0;entryDy=0;exitX=0.5;exitY=1;exitDx=0;exitDy=0;" parent="1" source="gh-8znMGUpCOYyHDODqv-89" target="gh-8znMGUpCOYyHDODqv-95" edge="1">
          <mxGeometry relative="1" as="geometry" />
        </mxCell>
        <mxCell id="gh-8znMGUpCOYyHDODqv-99" value="has_many" style="edgeLabel;html=1;align=center;verticalAlign=middle;resizable=0;points=[];" parent="gh-8znMGUpCOYyHDODqv-98" vertex="1" connectable="0">
          <mxGeometry x="-0.0046" y="-4" relative="1" as="geometry">
            <mxPoint as="offset" />
          </mxGeometry>
        </mxCell>
        <mxCell id="gh-8znMGUpCOYyHDODqv-89" value="Quality&lt;div&gt;assessment&lt;/div&gt;" style="swimlane;childLayout=stackLayout;horizontal=1;startSize=50;horizontalStack=0;rounded=1;fontSize=14;fontStyle=0;strokeWidth=2;resizeParent=0;resizeLast=1;shadow=0;dashed=0;align=center;arcSize=4;whiteSpace=wrap;html=1;" parent="1" vertex="1" collapsed="1">
          <mxGeometry x="1570" y="612" width="120" height="50" as="geometry">
            <mxRectangle x="1960" y="50" width="160" height="120" as="alternateBounds" />
          </mxGeometry>
        </mxCell>
        <mxCell id="gh-8znMGUpCOYyHDODqv-90" value="+Attribute1&#xa;+Attribute2&#xa;+Attribute3" style="align=left;strokeColor=none;fillColor=none;spacingLeft=4;fontSize=12;verticalAlign=top;resizable=0;rotatable=0;part=1;html=1;" parent="gh-8znMGUpCOYyHDODqv-89" vertex="1">
          <mxGeometry y="50" width="160" height="70" as="geometry" />
        </mxCell>
        <mxCell id="gh-8znMGUpCOYyHDODqv-95" value="Task" style="swimlane;childLayout=stackLayout;horizontal=1;startSize=50;horizontalStack=0;rounded=1;fontSize=14;fontStyle=0;strokeWidth=2;resizeParent=0;resizeLast=1;shadow=0;dashed=0;align=center;arcSize=4;whiteSpace=wrap;html=1;strokeColor=#7EA6E0;" parent="1" vertex="1" collapsed="1">
          <mxGeometry x="1400" y="720" width="70" height="50" as="geometry">
            <mxRectangle x="1840" y="180" width="160" height="120" as="alternateBounds" />
          </mxGeometry>
        </mxCell>
        <mxCell id="gh-8znMGUpCOYyHDODqv-96" value="+Attribute1&#xa;+Attribute2&#xa;+Attribute3" style="align=left;strokeColor=none;fillColor=none;spacingLeft=4;fontSize=12;verticalAlign=top;resizable=0;rotatable=0;part=1;html=1;" parent="gh-8znMGUpCOYyHDODqv-95" vertex="1">
          <mxGeometry y="50" width="160" height="70" as="geometry" />
        </mxCell>
        <mxCell id="gh-8znMGUpCOYyHDODqv-97" style="edgeStyle=orthogonalEdgeStyle;rounded=0;orthogonalLoop=1;jettySize=auto;html=1;dashed=1;dashPattern=8 8;strokeColor=#6c8ebf;strokeWidth=2;align=center;verticalAlign=middle;fontFamily=Helvetica;fontSize=11;fontColor=default;labelBackgroundColor=default;endArrow=classic;fillColor=#dae8fc;exitX=1;exitY=0.25;exitDx=0;exitDy=0;entryX=0;entryY=0.5;entryDx=0;entryDy=0;jumpStyle=line;" parent="1" source="gh-8znMGUpCOYyHDODqv-40" target="gh-8znMGUpCOYyHDODqv-95" edge="1">
          <mxGeometry relative="1" as="geometry">
            <mxPoint x="1340" y="870" as="targetPoint" />
            <Array as="points">
              <mxPoint x="1250" y="367" />
              <mxPoint x="1250" y="745" />
            </Array>
          </mxGeometry>
        </mxCell>
        <mxCell id="gh-8znMGUpCOYyHDODqv-102" style="edgeStyle=orthogonalEdgeStyle;rounded=0;orthogonalLoop=1;jettySize=auto;html=1;entryX=0;entryY=0.5;entryDx=0;entryDy=0;" parent="1" source="gh-8znMGUpCOYyHDODqv-100" target="gh-8znMGUpCOYyHDODqv-49" edge="1">
          <mxGeometry relative="1" as="geometry" />
        </mxCell>
        <mxCell id="gh-8znMGUpCOYyHDODqv-103" value="has_one" style="edgeLabel;html=1;align=center;verticalAlign=middle;resizable=0;points=[];" parent="gh-8znMGUpCOYyHDODqv-102" vertex="1" connectable="0">
          <mxGeometry x="-0.0172" y="-3" relative="1" as="geometry">
            <mxPoint as="offset" />
          </mxGeometry>
        </mxCell>
        <mxCell id="gh-8znMGUpCOYyHDODqv-100" value="Task" style="swimlane;childLayout=stackLayout;horizontal=1;startSize=50;horizontalStack=0;rounded=1;fontSize=14;fontStyle=0;strokeWidth=2;resizeParent=0;resizeLast=1;shadow=0;dashed=0;align=center;arcSize=4;whiteSpace=wrap;html=1;strokeColor=#7EA6E0;" parent="1" vertex="1" collapsed="1">
          <mxGeometry x="1320" y="110" width="70" height="50" as="geometry">
            <mxRectangle x="1250" y="25" width="160" height="120" as="alternateBounds" />
          </mxGeometry>
        </mxCell>
        <mxCell id="gh-8znMGUpCOYyHDODqv-101" value="+Attribute1&#xa;+Attribute2&#xa;+Attribute3" style="align=left;strokeColor=none;fillColor=none;spacingLeft=4;fontSize=12;verticalAlign=top;resizable=0;rotatable=0;part=1;html=1;" parent="gh-8znMGUpCOYyHDODqv-100" vertex="1">
          <mxGeometry y="50" width="160" height="70" as="geometry" />
        </mxCell>
        <mxCell id="gh-8znMGUpCOYyHDODqv-104" style="edgeStyle=orthogonalEdgeStyle;rounded=0;orthogonalLoop=1;jettySize=auto;html=1;entryX=0;entryY=0.5;entryDx=0;entryDy=0;dashed=1;dashPattern=8 8;strokeColor=#6c8ebf;strokeWidth=2;align=center;verticalAlign=middle;fontFamily=Helvetica;fontSize=11;fontColor=default;labelBackgroundColor=default;endArrow=classic;fillColor=#dae8fc;exitX=1;exitY=0.25;exitDx=0;exitDy=0;jumpStyle=line;" parent="1" source="gh-8znMGUpCOYyHDODqv-39" target="gh-8znMGUpCOYyHDODqv-100" edge="1">
          <mxGeometry relative="1" as="geometry" />
        </mxCell>
        <mxCell id="gh-8znMGUpCOYyHDODqv-107" style="edgeStyle=orthogonalEdgeStyle;rounded=0;orthogonalLoop=1;jettySize=auto;html=1;entryX=0.5;entryY=0;entryDx=0;entryDy=0;" parent="1" source="gh-8znMGUpCOYyHDODqv-105" target="gh-8znMGUpCOYyHDODqv-10" edge="1">
          <mxGeometry relative="1" as="geometry" />
        </mxCell>
        <mxCell id="gh-8znMGUpCOYyHDODqv-108" value="has_many" style="edgeLabel;html=1;align=center;verticalAlign=middle;resizable=0;points=[];" parent="gh-8znMGUpCOYyHDODqv-107" vertex="1" connectable="0">
          <mxGeometry x="-0.0261" y="1" relative="1" as="geometry">
            <mxPoint as="offset" />
          </mxGeometry>
        </mxCell>
        <mxCell id="gh-8znMGUpCOYyHDODqv-105" value="Job&lt;div&gt;vacancy&lt;/div&gt;" style="swimlane;childLayout=stackLayout;horizontal=1;startSize=50;horizontalStack=0;rounded=1;fontSize=14;fontStyle=0;strokeWidth=2;resizeParent=0;resizeLast=1;shadow=0;dashed=0;align=center;arcSize=4;whiteSpace=wrap;html=1;" parent="1" vertex="1" collapsed="1">
          <mxGeometry x="190" y="120" width="100" height="50" as="geometry">
            <mxRectangle x="310" y="70" width="160" height="120" as="alternateBounds" />
          </mxGeometry>
        </mxCell>
        <mxCell id="gh-8znMGUpCOYyHDODqv-106" value="+Attribute1&#xa;+Attribute2&#xa;+Attribute3" style="align=left;strokeColor=none;fillColor=none;spacingLeft=4;fontSize=12;verticalAlign=top;resizable=0;rotatable=0;part=1;html=1;" parent="gh-8znMGUpCOYyHDODqv-105" vertex="1">
          <mxGeometry y="50" width="160" height="70" as="geometry" />
        </mxCell>
        <mxCell id="gh-8znMGUpCOYyHDODqv-111" value="Обработка платежей" style="text;html=1;align=center;verticalAlign=middle;resizable=0;points=[];autosize=1;strokeColor=none;fillColor=none;fontFamily=Helvetica;fontSize=24;fontColor=default;" parent="1" vertex="1">
          <mxGeometry x="449" y="-460" width="140" height="30" as="geometry" />
        </mxCell>
        <mxCell id="gh-8znMGUpCOYyHDODqv-127" style="edgeStyle=orthogonalEdgeStyle;rounded=0;orthogonalLoop=1;jettySize=auto;html=1;entryX=0.5;entryY=0;entryDx=0;entryDy=0;" parent="1" source="gh-8znMGUpCOYyHDODqv-115" target="gh-8znMGUpCOYyHDODqv-125" edge="1">
          <mxGeometry relative="1" as="geometry" />
        </mxCell>
        <mxCell id="gh-8znMGUpCOYyHDODqv-128" value="has_many" style="edgeLabel;html=1;align=center;verticalAlign=middle;resizable=0;points=[];" parent="gh-8znMGUpCOYyHDODqv-127" vertex="1" connectable="0">
          <mxGeometry x="-0.0804" relative="1" as="geometry">
            <mxPoint as="offset" />
          </mxGeometry>
        </mxCell>
        <mxCell id="gh-8znMGUpCOYyHDODqv-115" value="Client" style="swimlane;childLayout=stackLayout;horizontal=1;startSize=50;horizontalStack=0;rounded=1;fontSize=14;fontStyle=0;strokeWidth=2;resizeParent=0;resizeLast=1;shadow=0;dashed=0;align=center;arcSize=4;whiteSpace=wrap;html=1;strokeColor=#7EA6E0;verticalAlign=middle;fontFamily=Helvetica;fontColor=default;fillColor=default;" parent="1" vertex="1" collapsed="1">
          <mxGeometry x="579" y="-410" width="80" height="50" as="geometry">
            <mxRectangle x="500" y="-20" width="160" height="120" as="alternateBounds" />
          </mxGeometry>
        </mxCell>
        <mxCell id="gh-8znMGUpCOYyHDODqv-116" value="+Attribute1&#xa;+Attribute2&#xa;+Attribute3" style="align=center;strokeColor=#7EA6E0;fillColor=default;spacingLeft=4;fontSize=14;verticalAlign=middle;resizable=0;rotatable=0;part=1;html=1;rounded=1;shadow=0;dashed=0;strokeWidth=2;arcSize=4;fontFamily=Helvetica;fontColor=default;fontStyle=0;" parent="gh-8znMGUpCOYyHDODqv-115" vertex="1">
          <mxGeometry y="50" width="160" height="70" as="geometry" />
        </mxCell>
        <mxCell id="gh-8znMGUpCOYyHDODqv-123" style="edgeStyle=orthogonalEdgeStyle;rounded=0;orthogonalLoop=1;jettySize=auto;html=1;entryX=0.5;entryY=0;entryDx=0;entryDy=0;" parent="1" source="gh-8znMGUpCOYyHDODqv-117" target="gh-8znMGUpCOYyHDODqv-121" edge="1">
          <mxGeometry relative="1" as="geometry" />
        </mxCell>
        <mxCell id="gh-8znMGUpCOYyHDODqv-124" value="has_many" style="edgeLabel;html=1;align=center;verticalAlign=middle;resizable=0;points=[];" parent="gh-8znMGUpCOYyHDODqv-123" vertex="1" connectable="0">
          <mxGeometry x="-0.0744" y="-1" relative="1" as="geometry">
            <mxPoint as="offset" />
          </mxGeometry>
        </mxCell>
        <mxCell id="gh-8znMGUpCOYyHDODqv-117" value="Worker" style="swimlane;childLayout=stackLayout;horizontal=1;startSize=50;horizontalStack=0;rounded=1;fontSize=14;fontStyle=0;strokeWidth=2;resizeParent=0;resizeLast=1;shadow=0;dashed=0;align=center;arcSize=4;whiteSpace=wrap;html=1;strokeColor=#7EA6E0;verticalAlign=middle;fontFamily=Helvetica;fontColor=default;fillColor=default;" parent="1" vertex="1" collapsed="1">
          <mxGeometry x="379" y="-410" width="80" height="50" as="geometry">
            <mxRectangle x="480" y="-60" width="160" height="120" as="alternateBounds" />
          </mxGeometry>
        </mxCell>
        <mxCell id="gh-8znMGUpCOYyHDODqv-118" value="+Attribute1&#xa;+Attribute2&#xa;+Attribute3" style="align=center;strokeColor=#7EA6E0;fillColor=default;spacingLeft=4;fontSize=14;verticalAlign=middle;resizable=0;rotatable=0;part=1;html=1;rounded=1;shadow=0;dashed=0;strokeWidth=2;arcSize=4;fontFamily=Helvetica;fontColor=default;fontStyle=0;" parent="gh-8znMGUpCOYyHDODqv-117" vertex="1">
          <mxGeometry y="50" width="160" height="70" as="geometry" />
        </mxCell>
        <mxCell id="gh-8znMGUpCOYyHDODqv-121" value="Worker invoice" style="swimlane;childLayout=stackLayout;horizontal=1;startSize=50;horizontalStack=0;rounded=1;fontSize=14;fontStyle=0;strokeWidth=2;resizeParent=0;resizeLast=1;shadow=0;dashed=0;align=center;arcSize=4;whiteSpace=wrap;html=1;" parent="1" vertex="1" collapsed="1">
          <mxGeometry x="379" y="-280" width="80" height="50" as="geometry">
            <mxRectangle x="480" y="600" width="160" height="120" as="alternateBounds" />
          </mxGeometry>
        </mxCell>
        <mxCell id="gh-8znMGUpCOYyHDODqv-122" value="+Attribute1&#xa;+Attribute2&#xa;+Attribute3" style="align=left;strokeColor=none;fillColor=none;spacingLeft=4;fontSize=12;verticalAlign=top;resizable=0;rotatable=0;part=1;html=1;" parent="gh-8znMGUpCOYyHDODqv-121" vertex="1">
          <mxGeometry y="50" width="160" height="70" as="geometry" />
        </mxCell>
        <mxCell id="gh-8znMGUpCOYyHDODqv-125" value="Client&lt;div&gt;invoice&lt;/div&gt;" style="swimlane;childLayout=stackLayout;horizontal=1;startSize=50;horizontalStack=0;rounded=1;fontSize=14;fontStyle=0;strokeWidth=2;resizeParent=0;resizeLast=1;shadow=0;dashed=0;align=center;arcSize=4;whiteSpace=wrap;html=1;" parent="1" vertex="1" collapsed="1">
          <mxGeometry x="579" y="-280" width="80" height="50" as="geometry">
            <mxRectangle x="480" y="600" width="160" height="120" as="alternateBounds" />
          </mxGeometry>
        </mxCell>
        <mxCell id="gh-8znMGUpCOYyHDODqv-126" value="+Attribute1&#xa;+Attribute2&#xa;+Attribute3" style="align=left;strokeColor=none;fillColor=none;spacingLeft=4;fontSize=12;verticalAlign=top;resizable=0;rotatable=0;part=1;html=1;" parent="gh-8znMGUpCOYyHDODqv-125" vertex="1">
          <mxGeometry y="50" width="160" height="70" as="geometry" />
        </mxCell>
        <mxCell id="gh-8znMGUpCOYyHDODqv-131" style="edgeStyle=orthogonalEdgeStyle;rounded=0;orthogonalLoop=1;jettySize=auto;html=1;entryX=0.5;entryY=1;entryDx=0;entryDy=0;" parent="1" source="gh-8znMGUpCOYyHDODqv-129" target="gh-8znMGUpCOYyHDODqv-125" edge="1">
          <mxGeometry relative="1" as="geometry" />
        </mxCell>
        <mxCell id="gh-8znMGUpCOYyHDODqv-132" value="has_many" style="edgeLabel;html=1;align=center;verticalAlign=middle;resizable=0;points=[];" parent="gh-8znMGUpCOYyHDODqv-131" vertex="1" connectable="0">
          <mxGeometry x="-0.0137" y="-1" relative="1" as="geometry">
            <mxPoint as="offset" />
          </mxGeometry>
        </mxCell>
        <mxCell id="gh-8znMGUpCOYyHDODqv-129" value="Invoice&lt;div&gt;status&lt;/div&gt;" style="swimlane;childLayout=stackLayout;horizontal=1;startSize=50;horizontalStack=0;rounded=1;fontSize=14;fontStyle=0;strokeWidth=2;resizeParent=0;resizeLast=1;shadow=0;dashed=0;align=center;arcSize=4;whiteSpace=wrap;html=1;" parent="1" vertex="1" collapsed="1">
          <mxGeometry x="579" y="-160" width="80" height="50" as="geometry">
            <mxRectangle x="690" y="900" width="160" height="120" as="alternateBounds" />
          </mxGeometry>
        </mxCell>
        <mxCell id="gh-8znMGUpCOYyHDODqv-130" value="+Attribute1&#xa;+Attribute2&#xa;+Attribute3" style="align=left;strokeColor=none;fillColor=none;spacingLeft=4;fontSize=12;verticalAlign=top;resizable=0;rotatable=0;part=1;html=1;" parent="gh-8znMGUpCOYyHDODqv-129" vertex="1">
          <mxGeometry y="50" width="160" height="70" as="geometry" />
        </mxCell>
        <mxCell id="gh-8znMGUpCOYyHDODqv-135" style="edgeStyle=orthogonalEdgeStyle;rounded=0;orthogonalLoop=1;jettySize=auto;html=1;entryX=0.5;entryY=1;entryDx=0;entryDy=0;" parent="1" source="gh-8znMGUpCOYyHDODqv-133" target="gh-8znMGUpCOYyHDODqv-121" edge="1">
          <mxGeometry relative="1" as="geometry" />
        </mxCell>
        <mxCell id="gh-8znMGUpCOYyHDODqv-136" value="has_many" style="edgeLabel;html=1;align=center;verticalAlign=middle;resizable=0;points=[];" parent="gh-8znMGUpCOYyHDODqv-135" vertex="1" connectable="0">
          <mxGeometry x="0.1507" relative="1" as="geometry">
            <mxPoint as="offset" />
          </mxGeometry>
        </mxCell>
        <mxCell id="gh-8znMGUpCOYyHDODqv-133" value="Invoice&lt;div&gt;status&lt;/div&gt;" style="swimlane;childLayout=stackLayout;horizontal=1;startSize=50;horizontalStack=0;rounded=1;fontSize=14;fontStyle=0;strokeWidth=2;resizeParent=0;resizeLast=1;shadow=0;dashed=0;align=center;arcSize=4;whiteSpace=wrap;html=1;" parent="1" vertex="1" collapsed="1">
          <mxGeometry x="379" y="-170" width="80" height="50" as="geometry">
            <mxRectangle x="690" y="900" width="160" height="120" as="alternateBounds" />
          </mxGeometry>
        </mxCell>
        <mxCell id="gh-8znMGUpCOYyHDODqv-134" value="+Attribute1&#xa;+Attribute2&#xa;+Attribute3" style="align=left;strokeColor=none;fillColor=none;spacingLeft=4;fontSize=12;verticalAlign=top;resizable=0;rotatable=0;part=1;html=1;" parent="gh-8znMGUpCOYyHDODqv-133" vertex="1">
          <mxGeometry y="50" width="160" height="70" as="geometry" />
        </mxCell>
        <mxCell id="gh-8znMGUpCOYyHDODqv-137" value="Ставки" style="text;html=1;align=center;verticalAlign=middle;resizable=0;points=[];autosize=1;strokeColor=none;fillColor=none;fontSize=24;" parent="1" vertex="1">
          <mxGeometry x="900" y="725" width="110" height="40" as="geometry" />
        </mxCell>
        <mxCell id="gh-8znMGUpCOYyHDODqv-146" style="edgeStyle=orthogonalEdgeStyle;rounded=0;orthogonalLoop=1;jettySize=auto;html=1;entryX=0;entryY=0.5;entryDx=0;entryDy=0;" parent="1" source="gh-8znMGUpCOYyHDODqv-138" target="gh-8znMGUpCOYyHDODqv-143" edge="1">
          <mxGeometry relative="1" as="geometry" />
        </mxCell>
        <mxCell id="gh-8znMGUpCOYyHDODqv-147" value="has_many" style="edgeLabel;html=1;align=center;verticalAlign=middle;resizable=0;points=[];" parent="gh-8znMGUpCOYyHDODqv-146" vertex="1" connectable="0">
          <mxGeometry x="-0.0829" y="1" relative="1" as="geometry">
            <mxPoint as="offset" />
          </mxGeometry>
        </mxCell>
        <mxCell id="gh-8znMGUpCOYyHDODqv-138" value="Manager" style="swimlane;childLayout=stackLayout;horizontal=1;startSize=50;horizontalStack=0;rounded=1;fontSize=14;fontStyle=0;strokeWidth=2;resizeParent=0;resizeLast=1;shadow=0;dashed=0;align=center;arcSize=4;whiteSpace=wrap;html=1;strokeColor=#7EA6E0;verticalAlign=middle;fontFamily=Helvetica;fontColor=default;fillColor=default;" parent="1" vertex="1" collapsed="1">
          <mxGeometry x="720" y="825" width="80" height="50" as="geometry">
            <mxRectangle x="470" y="-180" width="160" height="120" as="alternateBounds" />
          </mxGeometry>
        </mxCell>
        <mxCell id="gh-8znMGUpCOYyHDODqv-139" value="+Attribute1&#xa;+Attribute2&#xa;+Attribute3" style="align=center;strokeColor=#7EA6E0;fillColor=default;spacingLeft=4;fontSize=14;verticalAlign=middle;resizable=0;rotatable=0;part=1;html=1;rounded=1;shadow=0;dashed=0;strokeWidth=2;arcSize=4;fontFamily=Helvetica;fontColor=default;fontStyle=0;" parent="gh-8znMGUpCOYyHDODqv-138" vertex="1">
          <mxGeometry y="50" width="160" height="70" as="geometry" />
        </mxCell>
        <mxCell id="gh-8znMGUpCOYyHDODqv-141" value="Task" style="swimlane;childLayout=stackLayout;horizontal=1;startSize=50;horizontalStack=0;rounded=1;fontSize=14;fontStyle=0;strokeWidth=2;resizeParent=0;resizeLast=1;shadow=0;dashed=0;align=center;arcSize=4;whiteSpace=wrap;html=1;strokeColor=#7EA6E0;" parent="1" vertex="1" collapsed="1">
          <mxGeometry x="1110" y="825" width="80" height="50" as="geometry">
            <mxRectangle x="1345" y="670" width="160" height="120" as="alternateBounds" />
          </mxGeometry>
        </mxCell>
        <mxCell id="gh-8znMGUpCOYyHDODqv-142" value="+Attribute1&#xa;+Attribute2&#xa;+Attribute3" style="align=left;strokeColor=none;fillColor=none;spacingLeft=4;fontSize=12;verticalAlign=top;resizable=0;rotatable=0;part=1;html=1;" parent="gh-8znMGUpCOYyHDODqv-141" vertex="1">
          <mxGeometry y="50" width="160" height="70" as="geometry" />
        </mxCell>
        <mxCell id="gh-8znMGUpCOYyHDODqv-148" style="edgeStyle=orthogonalEdgeStyle;rounded=0;orthogonalLoop=1;jettySize=auto;html=1;entryX=0;entryY=0.5;entryDx=0;entryDy=0;" parent="1" source="gh-8znMGUpCOYyHDODqv-143" target="gh-8znMGUpCOYyHDODqv-141" edge="1">
          <mxGeometry relative="1" as="geometry" />
        </mxCell>
        <mxCell id="gh-8znMGUpCOYyHDODqv-149" value="has_one" style="edgeLabel;html=1;align=center;verticalAlign=middle;resizable=0;points=[];" parent="gh-8znMGUpCOYyHDODqv-148" vertex="1" connectable="0">
          <mxGeometry x="-0.0303" y="2" relative="1" as="geometry">
            <mxPoint as="offset" />
          </mxGeometry>
        </mxCell>
        <mxCell id="gh-8znMGUpCOYyHDODqv-143" value="Bet" style="swimlane;childLayout=stackLayout;horizontal=1;startSize=50;horizontalStack=0;rounded=1;fontSize=14;fontStyle=0;strokeWidth=2;resizeParent=0;resizeLast=1;shadow=0;dashed=0;align=center;arcSize=4;whiteSpace=wrap;html=1;" parent="1" vertex="1">
          <mxGeometry x="875" y="805" width="160" height="90" as="geometry">
            <mxRectangle x="910" y="790" width="60" height="50" as="alternateBounds" />
          </mxGeometry>
        </mxCell>
        <mxCell id="gh-8znMGUpCOYyHDODqv-144" value="+amount&lt;br&gt;+condition" style="align=left;strokeColor=none;fillColor=none;spacingLeft=4;fontSize=12;verticalAlign=top;resizable=0;rotatable=0;part=1;html=1;" parent="gh-8znMGUpCOYyHDODqv-143" vertex="1">
          <mxGeometry y="50" width="160" height="40" as="geometry" />
        </mxCell>
        <mxCell id="gh-8znMGUpCOYyHDODqv-145" style="edgeStyle=orthogonalEdgeStyle;rounded=0;orthogonalLoop=1;jettySize=auto;html=1;dashed=1;dashPattern=8 8;strokeColor=#6c8ebf;strokeWidth=2;align=center;verticalAlign=middle;fontFamily=Helvetica;fontSize=11;fontColor=default;labelBackgroundColor=default;endArrow=classic;fillColor=#dae8fc;exitX=1;exitY=0.75;exitDx=0;exitDy=0;jumpStyle=line;" parent="1" source="gh-8znMGUpCOYyHDODqv-40" target="gh-8znMGUpCOYyHDODqv-141" edge="1">
          <mxGeometry relative="1" as="geometry" />
        </mxCell>
        <mxCell id="bqryw9lpH8J73LWhgrvI-23" style="edgeStyle=orthogonalEdgeStyle;rounded=0;orthogonalLoop=1;jettySize=auto;html=1;entryX=1;entryY=0.5;entryDx=0;entryDy=0;dashed=1;dashPattern=8 8;strokeColor=#6c8ebf;strokeWidth=2;align=center;verticalAlign=middle;fontFamily=Helvetica;fontSize=11;fontColor=default;labelBackgroundColor=default;endArrow=classic;fillColor=#dae8fc;jumpStyle=line;" edge="1" parent="1" source="bqryw9lpH8J73LWhgrvI-14" target="gh-8znMGUpCOYyHDODqv-115">
          <mxGeometry relative="1" as="geometry" />
        </mxCell>
        <mxCell id="bqryw9lpH8J73LWhgrvI-14" value="Client" style="swimlane;childLayout=stackLayout;horizontal=1;startSize=50;horizontalStack=0;rounded=1;fontSize=14;fontStyle=0;strokeWidth=2;resizeParent=0;resizeLast=1;shadow=0;dashed=0;align=center;arcSize=4;whiteSpace=wrap;html=1;" vertex="1" parent="1">
          <mxGeometry x="940" y="-260" width="160" height="120" as="geometry">
            <mxRectangle x="500" y="-160" width="80" height="50" as="alternateBounds" />
          </mxGeometry>
        </mxCell>
        <mxCell id="bqryw9lpH8J73LWhgrvI-15" value="+client_discount" style="align=left;strokeColor=none;fillColor=none;spacingLeft=4;fontSize=12;verticalAlign=top;resizable=0;rotatable=0;part=1;html=1;" vertex="1" parent="bqryw9lpH8J73LWhgrvI-14">
          <mxGeometry y="50" width="160" height="70" as="geometry" />
        </mxCell>
        <mxCell id="bqryw9lpH8J73LWhgrvI-16" value="" style="rounded=1;whiteSpace=wrap;html=1;fillColor=none;" vertex="1" parent="bqryw9lpH8J73LWhgrvI-14">
          <mxGeometry y="120" width="160" as="geometry" />
        </mxCell>
        <mxCell id="bqryw9lpH8J73LWhgrvI-17" value="Регистрация" style="text;html=1;align=center;verticalAlign=middle;resizable=0;points=[];autosize=1;strokeColor=none;fillColor=none;fontFamily=Helvetica;fontSize=24;fontColor=default;" vertex="1" parent="1">
          <mxGeometry x="970" y="-310" width="100" height="30" as="geometry" />
        </mxCell>
        <mxCell id="bqryw9lpH8J73LWhgrvI-19" style="edgeStyle=orthogonalEdgeStyle;rounded=0;orthogonalLoop=1;jettySize=auto;html=1;entryX=0.5;entryY=0;entryDx=0;entryDy=0;dashed=1;dashPattern=8 8;strokeColor=#6c8ebf;strokeWidth=2;align=center;verticalAlign=middle;fontFamily=Helvetica;fontSize=11;fontColor=default;labelBackgroundColor=default;endArrow=classic;fillColor=#dae8fc;jumpStyle=line;" edge="1" parent="1" source="bqryw9lpH8J73LWhgrvI-15" target="gh-8znMGUpCOYyHDODqv-28">
          <mxGeometry relative="1" as="geometry" />
        </mxCell>
        <mxCell id="bqryw9lpH8J73LWhgrvI-29" value="" style="rounded=1;whiteSpace=wrap;html=1;fillColor=none;" vertex="1" parent="1">
          <mxGeometry x="910" y="-320" width="220" height="210" as="geometry" />
        </mxCell>
        <mxCell id="bqryw9lpH8J73LWhgrvI-30" value="" style="rounded=1;whiteSpace=wrap;html=1;fillColor=none;" vertex="1" parent="1">
          <mxGeometry x="340" y="-470" width="360" height="398" as="geometry" />
        </mxCell>
        <mxCell id="bqryw9lpH8J73LWhgrvI-31" value="" style="rounded=1;whiteSpace=wrap;html=1;fillColor=none;" vertex="1" parent="1">
          <mxGeometry x="159" y="60" width="401" height="410" as="geometry" />
        </mxCell>
        <mxCell id="bqryw9lpH8J73LWhgrvI-32" value="&lt;font style=&quot;font-size: 24px;&quot;&gt;Обработка заказов&lt;/font&gt;" style="text;html=1;align=center;verticalAlign=middle;resizable=0;points=[];autosize=1;strokeColor=none;fillColor=none;" vertex="1" parent="1">
          <mxGeometry x="770" y="40" width="240" height="40" as="geometry" />
        </mxCell>
        <mxCell id="bqryw9lpH8J73LWhgrvI-33" value="" style="rounded=1;whiteSpace=wrap;html=1;fillColor=none;" vertex="1" parent="1">
          <mxGeometry x="700" y="30" width="430" height="550" as="geometry" />
        </mxCell>
      </root>
    </mxGraphModel>
  </diagram>
</mxfile>
